<svg viewBox="0 0 175 56" xmlns="http://www.w3.org/2000/svg"><g id="Page-1"><path d="M16.8 45.5c-5.733-.033-9.967-1.6-12.7-4.7C1.367 37.7 0 32.95 0 26.55c0-6.433 1.433-11.217 4.3-14.35 2.867-3.133 7.267-4.7 13.2-4.7 1.367 0 2.833.092 4.4.275a35.99 35.99 0 0 1 4.55.825v4.5c-1.8-.367-3.375-.625-4.725-.775a34.315 34.315 0 0 0-3.775-.225c-2.233 0-4.133.267-5.7.8-1.567.533-2.842 1.383-3.825 2.55-.983 1.167-1.7 2.658-2.15 4.475-.45 1.817-.675 4.025-.675 6.625 0 2.567.217 4.75.65 6.55.433 1.8 1.108 3.283 2.025 4.45.917 1.167 2.1 2.017 3.55 2.55 1.45.533 3.192.8 5.225.8.6 0 1.308-.033 2.125-.1s1.658-.15 2.525-.25V26.2h5.05v17.95c-1.8.433-3.558.767-5.275 1-1.717.233-3.275.35-4.675.35zm22.2 0c-2.3 0-4.025-.625-5.175-1.875-1.15-1.25-1.725-3.075-1.725-5.475V18h5.35v18.55c0 1.633.275 2.783.825 3.45.55.667 1.492 1 2.825 1 1.267 0 2.575-.258 3.925-.775A36.673 36.673 0 0 0 49.2 38.3V18h5.35v27h-4.5l-.35-3.1h-.2c-1.2.633-2.25 1.175-3.15 1.625-.9.45-1.75.825-2.55 1.125-.8.3-1.575.517-2.325.65-.75.133-1.575.2-2.475.2zM72.45 18h4.7l.4 3.05h.3c1.8-2.367 4.417-3.55 7.85-3.55s6.017 1.108 7.75 3.325c1.733 2.217 2.6 5.608 2.6 10.175 0 4.5-1.125 8.042-3.375 10.625S87.15 45.5 82.85 45.5a27.15 27.15 0 0 1-2.6-.125 73.038 73.038 0 0 1-2.45-.275V56h-5.35V18zm10.5 23.6c2.633 0 4.575-.783 5.825-2.35 1.25-1.567 1.875-4.183 1.875-7.85 0-3.533-.508-6.05-1.525-7.55S86.467 21.6 84.2 21.6c-1.8 0-3.317.525-4.55 1.575-1.233 1.05-1.85 2.592-1.85 4.625v13.25c.733.167 1.55.3 2.45.4.9.1 1.8.15 2.7.15zm23.5 3.65c-2.3 0-4.067-.642-5.3-1.925-1.233-1.283-1.85-3.075-1.85-5.375 0-2.6.808-4.583 2.425-5.95 1.617-1.367 4.142-2.183 7.575-2.45l5.85-.45v-1.65c0-1.1-.092-2.017-.275-2.75-.183-.733-.5-1.325-.95-1.775-.45-.45-1.067-.767-1.85-.95-.783-.183-1.758-.275-2.925-.275-1.033 0-2.233.083-3.6.25a53.935 53.935 0 0 0-4.05.65l-.4-4c3.167-.633 6.167-.95 9-.95 3.567 0 6.192.708 7.875 2.125 1.683 1.417 2.525 3.642 2.525 6.675V45h-4.4l-.5-3.35h-.35c-1.367 1.1-2.783 1.975-4.25 2.625-1.467.65-2.983.975-4.55.975zm2.05-4c1.067 0 2.192-.275 3.375-.825a24.537 24.537 0 0 0 3.275-1.825v-6.25l-4.4.4c-2.233.233-3.8.7-4.7 1.4-.9.7-1.35 1.8-1.35 3.3 0 2.533 1.267 3.8 3.8 3.8zm28.2 4.15c-5.3 0-7.95-2.567-7.95-7.7V22.6h-5.1V18h5.4l.75-7.05 4.25-.55V18h7.25v4.6h-7.2v13.95c0 1.6.333 2.775 1 3.525s1.717 1.125 3.15 1.125c.467 0 .967-.042 1.5-.125a12.926 12.926 0 0 0 1.65-.375v4.15c-1.533.367-3.1.55-4.7.55zm11.2-32.6c-1.1 0-1.9-.25-2.4-.75s-.75-1.283-.75-2.35c0-1.067.25-1.85.75-2.35s1.3-.75 2.4-.75c2.133 0 3.2 1.033 3.2 3.1s-1.067 3.1-3.2 3.1zm-2.65 5.2h5.3v27h-5.3V18zm-83.925-.389v-1.679l5.363 1.287v.188l-5.363.204zm0 1V45.1h5.35l.013-26.693-5.363.205zm5.496-2.596l-.126.178-5.37-1.29v-.396l.498-.697.453-.635 4.545 2.84zm.582-.815l8.6-12.046L71.647.046l-8.79 12.313 4.545 2.841zM168.1 45.45c-4.233 0-7.392-1.142-9.475-3.425-2.083-2.283-3.125-5.792-3.125-10.525 0-9.3 4.2-13.95 12.6-13.95 1 0 2.042.058 3.125.175 1.083.117 2.108.292 3.075.525v4.4a25.797 25.797 0 0 0-5.65-.65c-2.7 0-4.667.758-5.9 2.275-1.233 1.517-1.85 3.925-1.85 7.225 0 3.333.6 5.75 1.8 7.25 1.2 1.5 3.15 2.25 5.85 2.25 1.033 0 1.992-.042 2.875-.125a22.888 22.888 0 0 0 2.875-.475v4.3c-.8.233-1.767.417-2.9.55-1.133.133-2.233.2-3.3.2z" id="logo"/></g></svg>